<?xml version="1.0" encoding="utf-8"?>
<!-- Generator: Adobe Illustrator 26.0.1, SVG Export Plug-In . SVG Version: 6.00 Build 0)  -->
<svg version="1.1" id="图层_1" xmlns="http://www.w3.org/2000/svg" xmlns:xlink="http://www.w3.org/1999/xlink" x="0px" y="0px"
	 viewBox="0 0 981.66 851.97" style="enable-background:new 0 0 981.66 851.97;" xml:space="preserve">
<style type="text/css">
	.st0{fill:#50D5FC;}
	.st1{fill:#50D5FC;stroke:#000000;stroke-width:4;stroke-miterlimit:10;}
</style>
<g>
	<g>
		<g>
			<rect x="190.36" y="22.86" class="st0" width="4" height="24.04"/>
		</g>
		<g>
			<rect x="199.67" y="14.37" class="st0" width="4" height="458.57"/>
		</g>
		<g>
			<rect x="208.98" y="22.86" class="st0" width="4" height="24.04"/>
		</g>
		<g>
			<rect x="190.36" y="439.91" class="st0" width="4" height="24.04"/>
		</g>
		<g>
			<rect x="208.98" y="439.91" class="st0" width="4" height="24.04"/>
		</g>
	</g>
	<g>
		<g>
			<rect x="77.3" y="59.31" class="st0" width="246.08" height="4"/>
		</g>
		<g>
			<polygon class="st0" points="78.2,77 63.12,77 63.12,73 74.2,73 74.2,51.95 78.2,51.95 			"/>
		</g>
		<g>
			<polygon class="st0" points="339.12,77 324.04,77 324.04,51.95 328.04,51.95 328.04,73 339.12,73 			"/>
		</g>
	</g>
	<g>
		<g>
			<rect x="77.3" y="421.31" class="st0" width="247.91" height="4"/>
		</g>
		<g>
			<polygon class="st0" points="78.2,432.68 74.2,432.68 74.2,411.62 63.12,411.62 63.12,407.62 78.2,407.62 			"/>
		</g>
		<g>
			<polygon class="st0" points="328.04,432.68 324.04,432.68 324.04,407.62 339.12,407.62 339.12,411.62 328.04,411.62 			"/>
		</g>
	</g>
	<g>
		<g>
			<polygon class="st0" points="72.81,32.8 44.3,32.8 44.3,61.31 			"/>
		</g>
		<g>
			<polygon class="st0" points="416.35,32.99 436.52,53.15 456.68,32.99 			"/>
		</g>
		<g>
			<polygon class="st0" points="435.67,122.34 415.5,142.51 435.67,162.67 			"/>
		</g>
		<g>
			<polygon class="st0" points="435.67,244.33 415.5,264.49 435.67,284.65 			"/>
		</g>
		<g>
			<polygon class="st0" points="416.35,449.99 436.52,429.83 456.68,449.99 			"/>
		</g>
		<g>
			<polygon class="st0" points="909.87,32.8 938.39,32.8 938.39,61.31 			"/>
		</g>
		<g>
			<polygon class="st0" points="72.81,449.67 44.3,449.67 44.3,421.15 			"/>
		</g>
		<g>
			<polygon class="st0" points="909.87,449.67 938.39,449.67 938.39,421.15 			"/>
		</g>
		<g>
			<g>
				<rect x="210.98" y="447.89" class="st0" width="566.06" height="4"/>
			</g>
			<g>
				<rect x="210.98" y="30.03" class="st0" width="566.06" height="4"/>
			</g>
			<g>
				<polygon class="st0" points="192.36,451.89 41.38,451.89 41.38,30.03 192.36,30.03 192.36,34.03 45.38,34.03 45.38,447.89 
					192.36,447.89 				"/>
			</g>
			<g>
				<polygon class="st0" points="940.39,451.89 795.67,451.89 795.67,447.89 936.39,447.89 936.39,34.03 795.67,34.03 795.67,30.03 
					940.39,30.03 				"/>
			</g>
		</g>
		<g>
			<g>
				<rect x="775.04" y="22.8" class="st0" width="4" height="23.86"/>
			</g>
			<g>
				<rect x="784.35" y="14.37" class="st0" width="4" height="455.3"/>
			</g>
			<g>
				<rect x="793.67" y="22.8" class="st0" width="4" height="23.86"/>
			</g>
			<g>
				<rect x="775.04" y="436.88" class="st0" width="4" height="23.86"/>
			</g>
			<g>
				<rect x="793.67" y="436.88" class="st0" width="4" height="23.86"/>
			</g>
		</g>
		<g>
			<g>
				<rect x="662.54" y="59.31" class="st0" width="246.08" height="4"/>
			</g>
			<g>
				<polygon class="st0" points="663.43,77 648.35,77 648.35,73 659.43,73 659.43,51.95 663.43,51.95 				"/>
			</g>
			<g>
				<polygon class="st0" points="924.36,77 909.28,77 909.28,51.95 913.28,51.95 913.28,73 924.36,73 				"/>
			</g>
		</g>
		<g>
			<g>
				<rect x="662.54" y="421.31" class="st0" width="246.08" height="4"/>
			</g>
			<g>
				<polygon class="st0" points="663.43,432.68 659.43,432.68 659.43,411.62 648.35,411.62 648.35,407.62 663.43,407.62 				"/>
			</g>
			<g>
				<polygon class="st0" points="913.28,432.68 909.28,432.68 909.28,407.62 924.36,407.62 924.36,411.62 913.28,411.62 				"/>
			</g>
		</g>
		<g>
			<rect x="416.38" y="332.61" class="st0" width="4" height="42.12"/>
		</g>
		<g>
			<line class="st0" x1="436.52" y1="51.23" x2="436.52" y2="432.48"/>
			<rect x="434.52" y="51.23" class="st0" width="4" height="381.26"/>
		</g>
		<g>
			<polygon class="st0" points="532.78,32.99 552.94,53.15 573.1,32.99 			"/>
		</g>
		<g>
			<polygon class="st0" points="552.94,194.79 573.1,214.96 552.94,235.12 			"/>
		</g>
		<g>
			<polygon class="st0" points="550.97,319.64 571.13,339.8 550.97,359.97 			"/>
		</g>
		<g>
			<polygon class="st0" points="532.78,449.99 552.94,429.83 573.1,449.99 			"/>
		</g>
		<g>
			<line class="st0" x1="552.94" y1="51.23" x2="552.94" y2="432.48"/>
			<rect x="550.94" y="51.23" class="st0" width="4" height="381.26"/>
		</g>
		<g>
			<g>
				<rect x="305.42" y="93.36" class="st0" width="4" height="24.03"/>
			</g>
			<g>
				<rect x="324.04" y="93.36" class="st0" width="4" height="24.03"/>
			</g>
			<g>
				<rect x="305.42" y="277.4" class="st0" width="4" height="24.03"/>
			</g>
			<g>
				<rect x="324.04" y="277.4" class="st0" width="4" height="24.03"/>
			</g>
			<g>
				<rect x="190.36" y="369.14" class="st0" width="4" height="24.15"/>
			</g>
			<g>
				<rect x="208.98" y="369.14" class="st0" width="4" height="24.15"/>
			</g>
			<g>
				<rect x="190.36" y="317.76" class="st0" width="4" height="24.15"/>
			</g>
			<g>
				<rect x="208.98" y="317.76" class="st0" width="4" height="24.15"/>
			</g>
			<g>
				<rect x="305.42" y="369.14" class="st0" width="4" height="24.15"/>
			</g>
			<g>
				<rect x="324.04" y="369.14" class="st0" width="4" height="24.15"/>
			</g>
			<g>
				<rect x="305.42" y="317.76" class="st0" width="4" height="24.15"/>
			</g>
			<g>
				<rect x="324.04" y="317.76" class="st0" width="4" height="24.15"/>
			</g>
			<g>
				<rect x="120.87" y="79.43" class="st0" width="161.95" height="4"/>
			</g>
			<g>
				<g>
					<rect x="210.98" y="379.22" class="st0" width="96.44" height="4"/>
				</g>
				<g>
					<rect x="210.98" y="327.84" class="st0" width="96.44" height="4"/>
				</g>
				<g>
					<polygon class="st0" points="359.97,383.22 326.04,383.22 326.04,379.22 355.97,379.22 355.97,331.84 326.04,331.84 
						326.04,327.84 359.97,327.84 					"/>
				</g>
				<g>
					<polygon class="st0" points="192.36,383.22 103.9,383.22 103.9,327.84 192.36,327.84 192.36,331.84 107.9,331.84 107.9,379.22 
						192.36,379.22 					"/>
				</g>
			</g>
			<g>
				<path class="st0" d="M119.5,357.5l-0.18-1.83l-1.35-1.71c0.77-0.61,0.77-0.61,37.33-0.87c19.04-0.14,45.54-0.29,78.77-0.46
					c57.23-0.29,114.37-0.51,114.37-0.51l0.02,4C271.06,356.41,123.62,357.09,119.5,357.5z"/>
			</g>
			<g>
				<rect x="117.2" y="341.91" class="st0" width="4" height="27.94"/>
			</g>
			<g>
				<rect x="283.7" y="340.37" class="st0" width="4" height="27.27"/>
			</g>
			<g>
				<rect x="346.44" y="340.37" class="st0" width="4" height="27.27"/>
			</g>
			<g>
				<rect x="357.97" y="339.91" class="st0" width="68.5" height="4"/>
			</g>
			<g>
				<rect x="357.97" y="364.31" class="st0" width="67.62" height="4"/>
			</g>
			<g>
				<path class="st0" d="M433.33,356.11c-11.33-0.09-28.6-0.19-29.76-0.12l-0.32-3.99c1.35-0.11,25.32,0.07,30.11,0.1L433.33,356.11
					z"/>
			</g>
			<g>
				<g>
					<polygon class="st0" points="389.9,291.6 326.04,291.6 326.04,287.6 385.9,287.6 385.9,107.15 326.04,107.15 326.04,103.15 
						389.9,103.15 					"/>
				</g>
				<g>
					<polygon class="st0" points="307.42,291.6 243.57,291.6 243.57,103.15 307.42,103.15 307.42,107.15 247.57,107.15 
						247.57,287.6 307.42,287.6 					"/>
				</g>
			</g>
			<g>
				<rect x="387.9" y="127.65" class="st0" width="12.97" height="4"/>
			</g>
			<g>
				<rect x="387.9" y="153.36" class="st0" width="12.97" height="4"/>
			</g>
			<g>
				<rect x="387.9" y="140.51" class="st0" width="30.48" height="4"/>
			</g>
			<g>
				<rect x="387.9" y="249.63" class="st0" width="12.97" height="4"/>
			</g>
			<g>
				<rect x="387.9" y="275.35" class="st0" width="12.97" height="4"/>
			</g>
			<g>
				<rect x="387.9" y="262.49" class="st0" width="30.48" height="4"/>
			</g>
			<g>
				<g>
					<path class="st0" d="M271.85,261.86h-28.28V123.52h28.28V261.86z M247.57,257.86h20.28V127.52h-20.28V257.86z"/>
				</g>
				<g>
					<path class="st0" d="M318.73,261.86h-43.24V123.52h43.24V261.86z M279.49,257.86h35.24V127.52h-35.24V257.86z"/>
				</g>
				<g>
					
						<rect x="242.26" y="132.29" transform="matrix(0.729 -0.6845 0.6845 0.729 -22.7939 211.0049)" class="st0" width="25.62" height="4"/>
				</g>
				<g>
					<path class="st0" d="M246.63,161.52l-1.79-3.58l-0.05,0.03c1.62-0.99,13.38-12.75,23.62-23.31l2.87,2.79
						C264.63,144.3,248.91,160.38,246.63,161.52z"/>
				</g>
				<g>
					
						<rect x="241.41" y="163.1" transform="matrix(0.7358 -0.6772 0.6772 0.7358 -43.6953 218.1965)" class="st0" width="32.76" height="4"/>
				</g>
				<g>
					
						<rect x="241.14" y="180.5" transform="matrix(0.7446 -0.6675 0.6675 0.7446 -56.0337 218.5465)" class="st0" width="32.9" height="4"/>
				</g>
				<g>
					
						<rect x="241.18" y="195.58" transform="matrix(0.7257 -0.6881 0.6881 0.7257 -65.2253 231.5797)" class="st0" width="33.23" height="4"/>
				</g>
				<g>
					
						<rect x="240.54" y="212.89" transform="matrix(0.6988 -0.7154 0.7154 0.6988 -76.0685 249.1479)" class="st0" width="34.5" height="4"/>
				</g>
				<g>
					
						<rect x="241.35" y="228.36" transform="matrix(0.7335 -0.6797 0.6797 0.7335 -87.8703 236.6312)" class="st0" width="32.88" height="4"/>
				</g>
				<g>
					
						<rect x="241.93" y="244.33" transform="matrix(0.7604 -0.6495 0.6495 0.7604 -98.2163 226.4672)" class="st0" width="31.71" height="4"/>
				</g>
				<g>
					
						<rect x="257.43" y="254.15" transform="matrix(0.8359 -0.5488 0.5488 0.8359 -97.2379 187.0207)" class="st0" width="13.53" height="4"/>
				</g>
				<g>
					
						<rect x="259.59" y="122.31" transform="matrix(0.7381 -0.6747 0.6747 0.7381 -22.2699 211.7333)" class="st0" width="4" height="24.48"/>
				</g>
				<g>
					
						<rect x="255.71" y="130.29" transform="matrix(0.6987 -0.7154 0.7154 0.6987 -27.6945 228.7475)" class="st0" width="4" height="33.93"/>
				</g>
				<g>
					
						<rect x="255.71" y="148.35" transform="matrix(0.6433 -0.7656 0.7656 0.6433 -33.7883 255.8874)" class="st0" width="4" height="31.71"/>
				</g>
				<g>
					
						<rect x="255.6" y="163.27" transform="matrix(0.6783 -0.7348 0.7348 0.6783 -49.3485 247.1768)" class="st0" width="4" height="33.34"/>
				</g>
				<g>
					
						<rect x="255.6" y="180.01" transform="matrix(0.6888 -0.7249 0.7249 0.6888 -62.583 248.0083)" class="st0" width="4" height="33.79"/>
				</g>
				<g>
					
						<rect x="255.71" y="197.24" transform="matrix(0.678 -0.7351 0.7351 0.678 -74.1385 258.2611)" class="st0" width="4" height="33.02"/>
				</g>
				<g>
					
						<rect x="255.6" y="212.5" transform="matrix(0.701 -0.7131 0.7131 0.701 -86.7727 252.3676)" class="st0" width="4" height="34.35"/>
				</g>
				<g>
					
						<rect x="255.6" y="228.79" transform="matrix(0.6673 -0.7448 0.7448 0.6673 -96.943 273.4525)" class="st0" width="4" height="32.89"/>
				</g>
				<g>
					
						<rect x="250.39" y="247.04" transform="matrix(0.5809 -0.814 0.814 0.5809 -101.9083 312.3876)" class="st0" width="4" height="16.22"/>
				</g>
				<g>
					
						<rect x="274.11" y="133.04" transform="matrix(0.729 -0.6845 0.6845 0.729 -14.3818 233.7651)" class="st0" width="27.83" height="4"/>
				</g>
				<g>
					<path class="st0" d="M278.77,163.03l-1.79-3.58l-0.07,0.04c2.08-1.31,24.69-22.43,38.45-35.43l2.75,2.91
						C307.03,137.44,281.01,161.91,278.77,163.03z"/>
				</g>
				<g>
					
						<rect x="270.67" y="157.48" transform="matrix(0.7294 -0.684 0.684 0.7294 -28.6533 246.5173)" class="st0" width="53.27" height="4"/>
				</g>
				<g>
					
						<rect x="269.86" y="174.27" transform="matrix(0.7154 -0.6988 0.6988 0.7154 -38.7253 257.4665)" class="st0" width="53.61" height="4"/>
				</g>
				<g>
					
						<rect x="270.31" y="189.78" transform="matrix(0.7197 -0.6943 0.6943 0.7197 -49.8143 260.178)" class="st0" width="54" height="4"/>
				</g>
				<g>
					
						<rect x="269.27" y="206.52" transform="matrix(0.6928 -0.7211 0.7211 0.6928 -59.0408 278.4521)" class="st0" width="56.08" height="4"/>
				</g>
				<g>
					
						<rect x="270.23" y="222.37" transform="matrix(0.7129 -0.7012 0.7012 0.7129 -72.1215 272.57)" class="st0" width="53.24" height="4"/>
				</g>
				<g>
					
						<rect x="270.93" y="238.31" transform="matrix(0.7367 -0.6762 0.6762 0.7367 -84.2213 264.3017)" class="st0" width="52.75" height="4"/>
				</g>
				<g>
					
						<rect x="287.33" y="246.45" transform="matrix(0.7266 -0.6871 0.6871 0.7266 -87.4891 277.0351)" class="st0" width="34.06" height="4"/>
				</g>
				<g>
					
						<rect x="298.43" y="118.96" transform="matrix(0.7088 -0.7055 0.7055 0.7088 -12.7195 253.3199)" class="st0" width="4" height="46.21"/>
				</g>
				<g>
					
						<rect x="307.38" y="122.76" transform="matrix(0.7531 -0.6578 0.6578 0.7531 -11.7434 236.586)" class="st0" width="4" height="22.37"/>
				</g>
				<g>
					
						<rect x="295.22" y="128.39" transform="matrix(0.6793 -0.7339 0.7339 0.6793 -18.4097 267.8166)" class="st0" width="4" height="53.17"/>
				</g>
				<g>
					
						<rect x="295.22" y="146.43" transform="matrix(0.6433 -0.7656 0.7656 0.6433 -25.5924 288.8947)" class="st0" width="4" height="50.97"/>
				</g>
				<g>
					
						<rect x="295.11" y="161.59" transform="matrix(0.6799 -0.7333 0.7333 0.6799 -43.0116 278.1512)" class="st0" width="4" height="53.52"/>
				</g>
				<g>
					
						<rect x="295.11" y="178.1" transform="matrix(0.6728 -0.7398 0.7398 0.6728 -54.1758 286.742)" class="st0" width="4" height="53.05"/>
				</g>
				<g>
					
						<rect x="295.22" y="194.96" transform="matrix(0.6421 -0.7666 0.7666 0.6421 -62.5948 306.7462)" class="st0" width="4" height="50.9"/>
				</g>
				<g>
					
						<rect x="295.11" y="210.52" transform="matrix(0.6761 -0.7368 0.7368 0.6761 -78.4975 295.7376)" class="st0" width="4" height="53.26"/>
				</g>
				<g>
					
						<rect x="289.46" y="229.39" transform="matrix(0.6548 -0.7558 0.7558 0.6548 -86.7317 305.8519)" class="st0" width="4" height="36.96"/>
				</g>
				<g>
					
						<rect x="281.55" y="249.06" transform="matrix(0.5809 -0.814 0.814 0.5809 -89.5121 338.0813)" class="st0" width="4" height="13.81"/>
				</g>
			</g>
			<g>
				<g>
					<path class="st0" d="M389.9,261.86h-28.28V123.52h28.28V261.86z M365.62,257.86h20.28V127.52h-20.28V257.86z"/>
				</g>
				<g>
					<path class="st0" d="M357.98,261.86h-43.24V123.52h43.24V261.86z M318.73,257.86h35.24V127.52h-35.24V257.86z"/>
				</g>
				<g>
					
						<rect x="376.39" y="121.48" transform="matrix(0.6846 -0.7289 0.7289 0.6846 21.4606 318.1735)" class="st0" width="4" height="25.62"/>
				</g>
				<g>
					<path class="st0" d="M386.84,161.52c-2.28-1.14-18-17.22-24.65-24.08l2.87-2.79c10.24,10.56,22,22.32,23.62,23.31
						L386.84,161.52z"/>
				</g>
				<g>
					
						<rect x="373.68" y="148.72" transform="matrix(0.6771 -0.7359 0.7359 0.6771 -0.1926 329.7564)" class="st0" width="4" height="32.76"/>
				</g>
				<g>
					
						<rect x="373.87" y="166.05" transform="matrix(0.6676 -0.7445 0.7445 0.6676 -10.9395 340.5017)" class="st0" width="4" height="32.9"/>
				</g>
				<g>
					
						<rect x="373.68" y="180.97" transform="matrix(0.6881 -0.7256 0.7256 0.6881 -26.1998 334.2113)" class="st0" width="4" height="33.23"/>
				</g>
				<g>
					
						<rect x="373.68" y="197.64" transform="matrix(0.7153 -0.6989 0.6989 0.7153 -43.209 323.7373)" class="st0" width="4" height="34.5"/>
				</g>
				<g>
					
						<rect x="373.68" y="213.92" transform="matrix(0.6798 -0.7334 0.7334 0.6798 -48.6579 349.2607)" class="st0" width="4" height="32.88"/>
				</g>
				<g>
					
						<rect x="373.68" y="230.48" transform="matrix(0.6496 -0.7603 0.7603 0.6496 -55.6458 371.9238)" class="st0" width="4" height="31.71"/>
				</g>
				<g>
					
						<rect x="367.28" y="249.39" transform="matrix(0.549 -0.8358 0.8358 0.549 -47.561 424.1526)" class="st0" width="4" height="13.53"/>
				</g>
				<g>
					
						<rect x="359.64" y="132.55" transform="matrix(0.6747 -0.7381 0.7381 0.6747 21.6707 318.2691)" class="st0" width="24.48" height="4"/>
				</g>
				<g>
					
						<rect x="358.79" y="145.25" transform="matrix(0.7154 -0.6988 0.6988 0.7154 4.064 304.4787)" class="st0" width="33.93" height="4"/>
				</g>
				<g>
					
						<rect x="359.91" y="162.2" transform="matrix(0.7657 -0.6432 0.6432 0.7657 -17.5806 280.1403)" class="st0" width="31.71" height="4"/>
				</g>
				<g>
					
						<rect x="359.2" y="177.94" transform="matrix(0.7349 -0.6782 0.6782 0.7349 -22.3825 302.6332)" class="st0" width="33.34" height="4"/>
				</g>
				<g>
					
						<rect x="358.97" y="194.9" transform="matrix(0.7249 -0.6888 0.6888 0.7249 -32.2417 313.0655)" class="st0" width="33.79" height="4"/>
				</g>
				<g>
					
						<rect x="359.25" y="211.75" transform="matrix(0.7349 -0.6782 0.6782 0.7349 -45.3412 311.5219)" class="st0" width="33.02" height="4"/>
				</g>
				<g>
					
						<rect x="358.7" y="227.67" transform="matrix(0.7131 -0.7011 0.7011 0.7131 -53.1717 329.425)" class="st0" width="34.35" height="4"/>
				</g>
				<g>
					
						<rect x="359.43" y="243.23" transform="matrix(0.7446 -0.6675 0.6675 0.7446 -67.7004 313.5116)" class="st0" width="32.89" height="4"/>
				</g>
				<g>
					
						<rect x="372.96" y="253.15" transform="matrix(0.8139 -0.581 0.581 0.8139 -77.327 268.8915)" class="st0" width="16.22" height="4"/>
				</g>
				<g>
					
						<rect x="343.44" y="121.13" transform="matrix(0.6846 -0.7289 0.7289 0.6846 10.5153 294.392)" class="st0" width="4" height="27.83"/>
				</g>
				<g>
					<path class="st0" d="M354.69,163.03c-2.24-1.12-28.25-25.59-39.33-36.06l2.75-2.91c13.76,13,36.37,34.12,38.45,35.43
						L354.69,163.03z"/>
				</g>
				<g>
					
						<rect x="334.16" y="132.84" transform="matrix(0.6841 -0.7293 0.7293 0.6841 -10.1379 295.5514)" class="st0" width="4" height="53.27"/>
				</g>
				<g>
					
						<rect x="334.81" y="149.46" transform="matrix(0.6989 -0.7152 0.7152 0.6989 -24.6594 293.9554)" class="st0" width="4" height="53.61"/>
				</g>
				<g>
					
						<rect x="334.16" y="164.78" transform="matrix(0.6944 -0.7196 0.7196 0.6944 -35.275 300.4977)" class="st0" width="4" height="54"/>
				</g>
				<g>
					
						<rect x="334.16" y="180.48" transform="matrix(0.7211 -0.6928 0.6928 0.7211 -50.7181 291.0526)" class="st0" width="4" height="56.08"/>
				</g>
				<g>
					
						<rect x="334.61" y="197.75" transform="matrix(0.7014 -0.7128 0.7128 0.7014 -59.4118 306.9358)" class="st0" width="4" height="53.24"/>
				</g>
				<g>
					
						<rect x="334.16" y="213.93" transform="matrix(0.6763 -0.7366 0.7366 0.6763 -68.2059 325.3942)" class="st0" width="4" height="52.75"/>
				</g>
				<g>
					
						<rect x="327.11" y="231.42" transform="matrix(0.6869 -0.7267 0.7267 0.6869 -77.5201 316.9552)" class="st0" width="4" height="34.06"/>
				</g>
				<g>
					
						<rect x="309.93" y="140.06" transform="matrix(0.7054 -0.7088 0.7088 0.7054 -2.5846 277.9104)" class="st0" width="46.21" height="4"/>
				</g>
				<g>
					
						<rect x="312.91" y="131.94" transform="matrix(0.6579 -0.7531 0.7531 0.6579 10.0037 289.9035)" class="st0" width="22.37" height="4"/>
				</g>
				<g>
					
						<rect x="309.66" y="152.97" transform="matrix(0.7339 -0.6792 0.6792 0.7339 -15.7953 269.6225)" class="st0" width="53.17" height="4"/>
				</g>
				<g>
					
						<rect x="310.76" y="169.91" transform="matrix(0.7657 -0.6432 0.6432 0.7657 -31.7953 256.5309)" class="st0" width="50.96" height="4"/>
				</g>
				<g>
					
						<rect x="309.6" y="186.34" transform="matrix(0.7332 -0.68 0.68 0.7332 -38.3388 278.9702)" class="st0" width="53.52" height="4"/>
				</g>
				<g>
					
						<rect x="309.83" y="202.62" transform="matrix(0.7398 -0.6729 0.6729 0.7398 -50.1529 279.5729)" class="st0" width="53.05" height="4"/>
				</g>
				<g>
					
						<rect x="310.79" y="218.41" transform="matrix(0.7666 -0.6421 0.6421 0.7666 -63.0534 267.3435)" class="st0" width="50.9" height="4"/>
				</g>
				<g>
					
						<rect x="309.73" y="235.15" transform="matrix(0.7367 -0.6762 0.6762 0.7367 -71.8048 289.874)" class="st0" width="53.26" height="4"/>
				</g>
				<g>
					
						<rect x="323.53" y="245.87" transform="matrix(0.7558 -0.6548 0.6548 0.7558 -78.7917 284.4567)" class="st0" width="36.96" height="4"/>
				</g>
				<g>
					
						<rect x="343.01" y="253.97" transform="matrix(0.8139 -0.581 0.581 0.8139 -83.5982 250.9381)" class="st0" width="13.81" height="4"/>
				</g>
			</g>
			<g>
				<rect x="318.06" y="299.43" class="st0" width="37.91" height="4"/>
			</g>
			<g>
				<path class="st0" d="M353.99,320.28l-1.9-0.64l-1.99-0.22c0.07-0.91,0.03-11.51-0.01-17.98l4-0.03
					C354.21,319.63,354.12,319.87,353.99,320.28z"/>
			</g>
			<g>
				
					<rect x="273.94" y="312.43" transform="matrix(0.9999 -0.0112 0.0112 0.9999 -3.5113 3.535)" class="st0" width="78.15" height="4"/>
			</g>
			<g>
				<polygon class="st0" points="319.65,310.22 273.95,310.22 273.95,306.22 315.62,306.22 313.83,87.1 317.83,87.07 				"/>
			</g>
			<g>
				<rect x="280.59" y="302.79" class="st0" width="4" height="19.84"/>
			</g>
			<g>
				<rect x="314.73" y="314.88" class="st0" width="4" height="79.59"/>
			</g>
		</g>
		<g>
			<rect x="679.5" y="356.74" class="st0" width="4" height="24.04"/>
		</g>
		<g>
			<rect x="660.88" y="356.74" class="st0" width="4" height="24.04"/>
		</g>
		<g>
			<rect x="677.21" y="177.48" class="st0" width="4" height="24.04"/>
		</g>
		<g>
			<rect x="658.59" y="177.48" class="st0" width="4" height="24.04"/>
		</g>
		<g>
			<rect x="792.27" y="85.62" class="st0" width="4" height="24.15"/>
		</g>
		<g>
			<rect x="773.65" y="85.62" class="st0" width="4" height="24.15"/>
		</g>
		<g>
			<rect x="792.27" y="136.99" class="st0" width="4" height="24.15"/>
		</g>
		<g>
			<rect x="773.65" y="136.99" class="st0" width="4" height="24.15"/>
		</g>
		<g>
			<rect x="677.21" y="85.62" class="st0" width="4" height="24.15"/>
		</g>
		<g>
			<rect x="658.59" y="85.62" class="st0" width="4" height="24.15"/>
		</g>
		<g>
			<rect x="677.21" y="136.99" class="st0" width="4" height="24.15"/>
		</g>
		<g>
			<rect x="658.59" y="136.99" class="st0" width="4" height="24.15"/>
		</g>
		<g>
			<rect x="703.82" y="395.48" class="st0" width="161.95" height="4"/>
		</g>
		<g>
			<g>
				<rect x="679.21" y="95.69" class="st0" width="96.44" height="4"/>
			</g>
			<g>
				<rect x="679.21" y="147.07" class="st0" width="96.44" height="4"/>
			</g>
			<g>
				<polygon class="st0" points="660.59,151.07 626.67,151.07 626.67,95.69 660.59,95.69 660.59,99.69 630.67,99.69 630.67,147.07 
					660.59,147.07 				"/>
			</g>
			<g>
				<polygon class="st0" points="882.73,151.07 794.27,151.07 794.27,147.07 878.73,147.07 878.73,99.69 794.27,99.69 794.27,95.69 
					882.73,95.69 				"/>
			</g>
		</g>
		<g>
			<path class="st0" d="M638.21,126.79l-0.02-4c77.39-0.3,224.83-0.98,228.95-1.39l0.18,1.83l1.35,1.71
				c-0.77,0.61-0.77,0.61-37.33,0.87c-19.04,0.14-45.54,0.29-78.77,0.46C695.35,126.57,638.21,126.79,638.21,126.79z"/>
		</g>
		<g>
			<rect x="865.43" y="109.05" class="st0" width="4" height="27.94"/>
		</g>
		<g>
			<rect x="698.94" y="111.27" class="st0" width="4" height="27.27"/>
		</g>
		<g>
			<rect x="636.2" y="111.27" class="st0" width="4" height="27.27"/>
		</g>
		<g>
			<rect x="560.16" y="145.25" class="st0" width="68.5" height="4"/>
		</g>
		<g>
			<rect x="561.05" y="110.6" class="st0" width="67.62" height="4"/>
		</g>
		<g>
			<path class="st0" d="M579.3,129.18c-7.37,0-22.35-0.11-26.03-0.14l0.03-4c11.33,0.09,28.61,0.19,29.76,0.12l0.32,3.99
				C583.07,129.17,581.53,129.18,579.3,129.18z"/>
		</g>
		<g>
			<g>
				<polygon class="st0" points="662.35,368.75 596.74,368.75 596.74,187.31 660.59,187.31 660.59,191.31 600.74,191.31 
					600.74,364.75 662.35,364.75 				"/>
			</g>
			<g>
				<polygon class="st0" points="743.07,368.75 681.5,368.75 681.5,364.75 739.07,364.75 739.07,191.31 679.21,191.31 
					679.21,187.31 743.07,187.31 				"/>
			</g>
		</g>
		<g>
			<rect x="594.42" y="351.67" class="st0" width="20.67" height="4"/>
		</g>
		<g>
			<rect x="592.25" y="327.83" class="st0" width="7.65" height="4"/>
		</g>
		<g>
			<rect x="568.26" y="339.75" class="st0" width="30.48" height="4"/>
		</g>
		<g>
			<rect x="585.77" y="225.28" class="st0" width="12.97" height="4"/>
		</g>
		<g>
			<rect x="592.48" y="202.62" class="st0" width="19.69" height="4"/>
		</g>
		<g>
			<rect x="568.26" y="212.42" class="st0" width="30.48" height="4"/>
		</g>
		<g>
			<g>
				<path class="st0" d="M743.07,343.75h-28.28V212.96h28.28V343.75z M718.79,339.75h20.28V216.96h-20.28V339.75z"/>
			</g>
			<g>
				<path class="st0" d="M711.14,343.75H667.9V212.96h43.24V343.75z M671.9,339.75h35.24V216.96H671.9V339.75z"/>
			</g>
			<g>
				
					<rect x="719.08" y="331.47" transform="matrix(0.7485 -0.6631 0.6631 0.7485 -37.1648 568.9462)" class="st0" width="24.96" height="4"/>
			</g>
			<g>
				<path class="st0" d="M718.18,333.25l-2.79-2.87c6.65-6.47,22.38-21.65,24.65-22.72l1.71,3.62l0.05-0.02
					C740.19,312.18,728.43,323.28,718.18,333.25z"/>
			</g>
			<g>
				
					<rect x="712.88" y="302.4" transform="matrix(0.7549 -0.6558 0.6558 0.7549 -21.0073 552.5775)" class="st0" width="31.93" height="4"/>
			</g>
			<g>
				
					<rect x="712.99" y="285.97" transform="matrix(0.7633 -0.6461 0.6461 0.7633 -13.4683 539.1826)" class="st0" width="32.09" height="4"/>
			</g>
			<g>
				
					<rect x="712.67" y="271.74" transform="matrix(0.7451 -0.667 0.667 0.7451 3.2175 555.894)" class="st0" width="32.36" height="4"/>
			</g>
			<g>
				
					<rect x="712.09" y="255.4" transform="matrix(0.7192 -0.6948 0.6948 0.7192 25.8135 578.6739)" class="st0" width="33.52" height="4"/>
			</g>
			<g>
				
					<rect x="712.83" y="240.81" transform="matrix(0.7524 -0.6587 0.6587 0.7524 20.5132 540.1862)" class="st0" width="32.03" height="4"/>
			</g>
			<g>
				
					<rect x="713.36" y="225.73" transform="matrix(0.7783 -0.6279 0.6279 0.7783 18.6001 508.1354)" class="st0" width="30.97" height="4"/>
			</g>
			<g>
				
					<rect x="715.79" y="216.46" transform="matrix(0.85 -0.5268 0.5268 0.85 -6.7136 413.3478)" class="st0" width="13.3" height="4"/>
			</g>
			<g>
				
					<rect x="723.05" y="321.36" transform="matrix(0.7183 -0.6957 0.6957 0.7183 -27.5856 598.3229)" class="st0" width="4" height="23.74"/>
			</g>
			<g>
				
					<rect x="726.93" y="304.73" transform="matrix(0.6777 -0.7353 0.7353 0.6777 -1.2896 639.5372)" class="st0" width="4" height="33.01"/>
			</g>
			<g>
				
					<rect x="726.93" y="289.75" transform="matrix(0.6213 -0.7836 0.7836 0.6213 36.8576 686.7473)" class="st0" width="4" height="30.98"/>
			</g>
			<g>
				
					<rect x="727.04" y="274.14" transform="matrix(0.6569 -0.754 0.754 0.6569 31.1991 649.3293)" class="st0" width="4" height="32.49"/>
			</g>
			<g>
				
					<rect x="727.04" y="257.93" transform="matrix(0.6676 -0.7445 0.7445 0.6676 38.0304 633.9473)" class="st0" width="4" height="32.9"/>
			</g>
			<g>
				
					<rect x="726.93" y="242.39" transform="matrix(0.6566 -0.7542 0.7542 0.6566 55.3601 638.548)" class="st0" width="4" height="32.19"/>
			</g>
			<g>
				
					<rect x="727.04" y="226.74" transform="matrix(0.6801 -0.7331 0.7331 0.6801 54.7231 612.3218)" class="st0" width="4" height="33.42"/>
			</g>
			<g>
				
					<rect x="727.04" y="212.73" transform="matrix(0.6457 -0.7636 0.7636 0.6457 83.625 637.7565)" class="st0" width="4" height="32.08"/>
			</g>
			<g>
				
					<rect x="732.24" y="211.44" transform="matrix(0.5586 -0.8294 0.8294 0.5586 142.0956 705.8318)" class="st0" width="4" height="15.92"/>
			</g>
			<g>
				
					<rect x="685.06" y="330.76" transform="matrix(0.7485 -0.6631 0.6631 0.7485 -44.9766 546.9183)" class="st0" width="27.11" height="4"/>
			</g>
			<g>
				<path class="st0" d="M671.23,343.24l-2.66-2.99c11.08-9.88,37.09-32.97,39.33-34.03l1.71,3.62l0.07-0.04
					C707.61,311.04,685,330.97,671.23,343.24z"/>
			</g>
			<g>
				
					<rect x="663.38" y="307.7" transform="matrix(0.7485 -0.6631 0.6631 0.7485 -32.0186 534.9639)" class="st0" width="51.89" height="4"/>
			</g>
			<g>
				
					<rect x="663.9" y="291.86" transform="matrix(0.7351 -0.678 0.678 0.7351 -16.4491 545.6136)" class="st0" width="52.16" height="4"/>
			</g>
			<g>
				
					<rect x="663.05" y="277.21" transform="matrix(0.7393 -0.6734 0.6734 0.7393 -8.3075 536.9699)" class="st0" width="52.55" height="4"/>
			</g>
			<g>
				
					<rect x="662.1" y="261.41" transform="matrix(0.7134 -0.7007 0.7007 0.7134 12.963 558.5205)" class="st0" width="54.47" height="4"/>
			</g>
			<g>
				
					<rect x="663.88" y="246.45" transform="matrix(0.7327 -0.6805 0.6805 0.7327 15.2762 535.8015)" class="st0" width="51.79" height="4"/>
			</g>
			<g>
				
					<rect x="663.62" y="231.41" transform="matrix(0.7558 -0.6548 0.6548 0.7558 15.4794 508.3392)" class="st0" width="51.41" height="4"/>
			</g>
			<g>
				
					<rect x="665.69" y="223.73" transform="matrix(0.7462 -0.6657 0.6657 0.7462 22.8673 511.4481)" class="st0" width="33.17" height="4"/>
			</g>
			<g>
				
					<rect x="684.2" y="303.67" transform="matrix(0.6881 -0.7257 0.7257 0.6881 -22.6045 599.6865)" class="st0" width="4" height="44.92"/>
			</g>
			<g>
				
					<rect x="675.26" y="322.97" transform="matrix(0.7339 -0.6792 0.6792 0.7339 -46.5234 548.8409)" class="st0" width="4" height="21.67"/>
			</g>
			<g>
				
					<rect x="687.41" y="288.05" transform="matrix(0.6579 -0.7531 0.7531 0.6579 -0.5975 626.59)" class="st0" width="4" height="51.81"/>
			</g>
			<g>
				
					<rect x="687.41" y="273.07" transform="matrix(0.6213 -0.7836 0.7836 0.6213 27.5966 653.0342)" class="st0" width="4" height="49.8"/>
			</g>
			<g>
				
					<rect x="687.52" y="256.38" transform="matrix(0.6586 -0.7525 0.7525 0.6586 22.8752 615.3285)" class="st0" width="4" height="52.15"/>
			</g>
			<g>
				
					<rect x="687.52" y="241.23" transform="matrix(0.6513 -0.7588 0.7588 0.6513 37.7468 616.3317)" class="st0" width="4" height="51.72"/>
			</g>
			<g>
				
					<rect x="687.41" y="227.32" transform="matrix(0.6201 -0.7845 0.7845 0.6201 64.0418 636.6436)" class="st0" width="4" height="49.74"/>
			</g>
			<g>
				
					<rect x="687.52" y="210.44" transform="matrix(0.6546 -0.7559 0.7559 0.6546 59.4378 602.889)" class="st0" width="4" height="51.91"/>
			</g>
			<g>
				
					<rect x="693.18" y="208.23" transform="matrix(0.633 -0.7742 0.7742 0.633 79.9596 621.2158)" class="st0" width="4" height="36.09"/>
			</g>
			<g>
				
					<rect x="701.08" y="211.86" transform="matrix(0.5586 -0.8294 0.8294 0.5586 128.9841 679.656)" class="st0" width="4" height="13.55"/>
			</g>
		</g>
		<g>
			<g>
				<path class="st0" d="M625.35,343.91h-28.28V212.96h28.28V343.91z M601.07,339.91h20.28V216.96h-20.28V339.91z"/>
			</g>
			<g>
				<path class="st0" d="M672.23,343.91h-43.24V212.96h43.24V343.91z M632.99,339.91h35.24V216.96h-35.24V339.91z"/>
			</g>
			<g>
				
					<rect x="606.58" y="321.14" transform="matrix(0.6638 -0.7479 0.7479 0.6638 -44.9121 567.3458)" class="st0" width="4" height="24.97"/>
			</g>
			<g>
				<path class="st0" d="M621.95,333.4c-10.24-9.98-22-21.09-23.62-22.03l1.76-3.59c2.27,1.08,18,16.27,24.65,22.75L621.95,333.4z"
					/>
			</g>
			<g>
				
					<rect x="609.29" y="288.54" transform="matrix(0.6562 -0.7546 0.7546 0.6562 -19.6126 565.9791)" class="st0" width="4" height="31.95"/>
			</g>
			<g>
				
					<rect x="609.1" y="272.01" transform="matrix(0.6465 -0.7629 0.7629 0.6465 -3.7438 568.0493)" class="st0" width="4" height="32.11"/>
			</g>
			<g>
				
					<rect x="609.29" y="257.63" transform="matrix(0.6674 -0.7447 0.7447 0.6674 -0.5908 546.3042)" class="st0" width="4" height="32.37"/>
			</g>
			<g>
				
					<rect x="609.29" y="240.68" transform="matrix(0.6952 -0.7188 0.7188 0.6952 1.2581 517.8771)" class="st0" width="4" height="33.54"/>
			</g>
			<g>
				
					<rect x="609.29" y="226.81" transform="matrix(0.6589 -0.7522 0.7522 0.6589 25.8309 542.6489)" class="st0" width="4" height="32.05"/>
			</g>
			<g>
				
					<rect x="609.29" y="212.25" transform="matrix(0.6282 -0.778 0.778 0.6282 50.0731 560.2802)" class="st0" width="4" height="30.99"/>
			</g>
			<g>
				
					<rect x="615.69" y="211.81" transform="matrix(0.5274 -0.8496 0.8496 0.5274 106.3192 628.064)" class="st0" width="4" height="13.31"/>
			</g>
			<g>
				
					<rect x="603.21" y="331.38" transform="matrix(0.6953 -0.7187 0.7187 0.6953 -52.185 543.6642)" class="st0" width="23.75" height="4"/>
			</g>
			<g>
				
					<rect x="594.69" y="319.38" transform="matrix(0.7349 -0.6782 0.6782 0.7349 -55.9077 499.7432)" class="st0" width="33.03" height="4"/>
			</g>
			<g>
				
					<rect x="595.71" y="303.36" transform="matrix(0.7833 -0.6217 0.6217 0.7833 -57.3731 446.1328)" class="st0" width="31" height="4"/>
			</g>
			<g>
				
					<rect x="594.84" y="288.48" transform="matrix(0.7536 -0.6574 0.6574 0.7536 -40.3625 473.2953)" class="st0" width="32.51" height="4"/>
			</g>
			<g>
				
					<rect x="594.64" y="272.46" transform="matrix(0.7442 -0.668 0.668 0.7442 -26.9962 478.4236)" class="st0" width="32.92" height="4"/>
			</g>
			<g>
				
					<rect x="595.11" y="256.53" transform="matrix(0.7538 -0.6571 0.6571 0.7538 -19.3996 465.2928)" class="st0" width="32.2" height="4"/>
			</g>
			<g>
				
					<rect x="594.38" y="241.49" transform="matrix(0.7325 -0.6808 0.6808 0.7325 -2.2961 481.1348)" class="st0" width="33.44" height="4"/>
			</g>
			<g>
				
					<rect x="595.05" y="226.79" transform="matrix(0.7633 -0.6461 0.6461 0.7633 -3.1501 448.9731)" class="st0" width="32.1" height="4"/>
			</g>
			<g>
				
					<rect x="597.93" y="217.41" transform="matrix(0.8291 -0.5591 0.5591 0.8291 -19.1275 376.2427)" class="st0" width="15.92" height="4"/>
			</g>
			<g>
				
					<rect x="639.52" y="319.35" transform="matrix(0.6638 -0.7479 0.7479 0.6638 -33.3033 591.7372)" class="st0" width="4" height="27.13"/>
			</g>
			<g>
				<path class="st0" d="M668.9,343.41c-13.77-12.29-36.38-32.25-38.45-33.48l1.78-3.58c2.24,1.06,28.25,24.18,39.33,34.08
					L668.9,343.41z"/>
			</g>
			<g>
				
					<rect x="648.81" y="283.86" transform="matrix(0.6633 -0.7483 0.7483 0.6633 -12.7397 591.3226)" class="st0" width="4" height="51.92"/>
			</g>
			<g>
				
					<rect x="648.16" y="267.86" transform="matrix(0.6784 -0.7347 0.7347 0.6784 -6.892 572.1691)" class="st0" width="4" height="52.19"/>
			</g>
			<g>
				
					<rect x="648.81" y="253" transform="matrix(0.6738 -0.7389 0.7389 0.6738 5.9052 571.97)" class="st0" width="4" height="52.59"/>
			</g>
			<g>
				
					<rect x="648.81" y="236.22" transform="matrix(0.7012 -0.7129 0.7129 0.7012 6.601 542.6998)" class="st0" width="4" height="54.5"/>
			</g>
			<g>
				
					<rect x="648.36" y="222.58" transform="matrix(0.681 -0.7323 0.7323 0.681 25.5125 555.5529)" class="st0" width="4" height="51.82"/>
			</g>
			<g>
				
					<rect x="648.81" y="207.72" transform="matrix(0.6554 -0.7553 0.7553 0.6554 47.968 572.0067)" class="st0" width="4" height="51.44"/>
			</g>
			<g>
				
					<rect x="655.86" y="209.15" transform="matrix(0.6662 -0.7458 0.7458 0.6662 51.2523 565.9901)" class="st0" width="4" height="33.19"/>
			</g>
			<g>
				
					<rect x="631.46" y="324.28" transform="matrix(0.7252 -0.6886 0.6886 0.7252 -44.9475 539.9394)" class="st0" width="44.95" height="4"/>
			</g>
			<g>
				
					<rect x="652.04" y="331.95" transform="matrix(0.6787 -0.7344 0.7344 0.6787 -32.2879 594.1022)" class="st0" width="21.68" height="4"/>
			</g>
			<g>
				
					<rect x="624.8" y="312.08" transform="matrix(0.7527 -0.6584 0.6584 0.7527 -45.8452 506.1198)" class="st0" width="51.84" height="4"/>
			</g>
			<g>
				
					<rect x="625.81" y="296.07" transform="matrix(0.7833 -0.6217 0.6217 0.7833 -44.2814 469.1196)" class="st0" width="49.82" height="4"/>
			</g>
			<g>
				
					<rect x="624.53" y="280.54" transform="matrix(0.752 -0.6592 0.6592 0.752 -24.8806 498.9606)" class="st0" width="52.18" height="4"/>
			</g>
			<g>
				
					<rect x="624.74" y="265.16" transform="matrix(0.7583 -0.6519 0.6519 0.7583 -16.9182 488.6855)" class="st0" width="51.75" height="4"/>
			</g>
			<g>
				
					<rect x="625.84" y="250.24" transform="matrix(0.7841 -0.6206 0.6206 0.7841 -16.0728 458.2727)" class="st0" width="49.76" height="4"/>
			</g>
			<g>
				
					<rect x="624.64" y="234.42" transform="matrix(0.7554 -0.6553 0.6553 0.7554 4.2269 484.1697)" class="st0" width="51.94" height="4"/>
			</g>
			<g>
				
					<rect x="626.91" y="224.29" transform="matrix(0.7739 -0.6333 0.6333 0.7739 2.5098 459.6084)" class="st0" width="36.1" height="4"/>
			</g>
			<g>
				
					<rect x="630.28" y="216.64" transform="matrix(0.8291 -0.5591 0.5591 0.8291 -13.373 393.533)" class="st0" width="13.55" height="4"/>
			</g>
		</g>
		<g>
			<rect x="630.66" y="175.48" class="st0" width="37.91" height="4"/>
		</g>
		<g>
			<path class="st0" d="M636.23,177.49c-0.11-18.21-0.03-18.45,0.1-18.86l1.9,0.63l1.99,0.22c-0.07,0.91-0.03,11.51,0.01,17.98
				L636.23,177.49z"/>
		</g>
		<g>
			
				<rect x="634.54" y="162.48" transform="matrix(0.9999 -0.0112 0.0112 0.9999 -1.8046 7.5749)" class="st0" width="78.15" height="4"/>
		</g>
		<g>
			<polygon class="st0" points="668.8,391.84 666.98,168.68 712.69,168.68 712.69,172.68 671.02,172.68 672.8,391.81 			"/>
		</g>
		<g>
			<rect x="702.04" y="160.23" class="st0" width="4" height="19.84"/>
		</g>
		<g>
			<rect x="667.9" y="84.44" class="st0" width="4" height="79.59"/>
		</g>
		<g>
			<rect x="566.26" y="105.15" class="st0" width="4" height="43.92"/>
		</g>
		<g>
			<rect x="44.3" y="603.18" class="st0" width="894.09" height="4"/>
		</g>
		<g>
			<path class="st1" d="M-81.65,439.91"/>
		</g>
		<g>
			<polygon class="st0" points="454.52,604.4 475.72,604.4 475.72,583.19 			"/>
		</g>
		<g>
			<polygon class="st0" points="543.31,604.4 521.93,604.4 521.93,583.01 			"/>
		</g>
		<g>
			<rect x="474.24" y="482.3" class="st0" width="4" height="123.07"/>
		</g>
		<g>
			<rect x="519.93" y="482.3" class="st0" width="4" height="123.07"/>
		</g>
		<g>
			<path class="st0" d="M485.74,607.08l-1.29-3.79l16.56-5.66l-18.11-9.22l16.51-4.32l-15.17-6.35l16.19-7.01
				c-12.51-5.42-13.05-5.96-13.33-6.24l-0.81-0.81l0.28-1.16c0.31-1.19,0.48-1.84,15.74-6.19l-17.82-8.03l15.91-6.11l-2.32-2.34
				l2.84-2.82l6.65,6.69l-12.68,4.87l19.11,8.61l-5.32,1.48c-5.56,1.55-11.56,3.32-15.31,4.54c3.52,1.6,8.85,3.92,12.91,5.66
				l4.27,1.83l-16.08,6.96l17.42,7.29l-17.78,4.66l17.17,8.74L485.74,607.08z"/>
		</g>
		<g>
			<path class="st0" d="M496.56,541.1c-6.1,0-11.06-4.96-11.06-11.06s4.96-11.06,11.06-11.06s11.06,4.96,11.06,11.06
				S502.66,541.1,496.56,541.1z M496.56,522.98c-3.89,0-7.06,3.17-7.06,7.06s3.17,7.06,7.06,7.06c3.89,0,7.06-3.17,7.06-7.06
				S500.45,522.98,496.56,522.98z"/>
		</g>
		<g>
			<g>
				<path class="st0" d="M201.22,829.65C136.03,829.65,83,776.62,83,711.43s53.04-118.22,118.22-118.22s118.22,53.03,118.22,118.22
					S266.41,829.65,201.22,829.65z M201.22,597.21C138.24,597.21,87,648.45,87,711.43c0,62.98,51.24,114.22,114.22,114.22
					c62.98,0,114.22-51.24,114.22-114.22C315.44,648.45,264.2,597.21,201.22,597.21z"/>
			</g>
			<g>
				<path class="st0" d="M149.59,651.72l-2.64-3.01c10.69-9.38,23.65-15.89,37.49-18.84l0.83,3.91
					C172.11,636.6,159.77,642.8,149.59,651.72z"/>
			</g>
			<g>
				<path class="st0" d="M123.72,697.66l-3.94-0.69c2.65-15.18,9.49-29.33,19.78-40.91l2.99,2.66
					C132.76,669.74,126.25,683.21,123.72,697.66z"/>
			</g>
			<g>
				<path class="st0" d="M128.29,750.62c-6.39-11.98-9.76-25.53-9.76-39.19c0-1.56,0.04-3.14,0.13-4.7l3.99,0.22
					c-0.08,1.49-0.12,3-0.12,4.48c0,13.01,3.21,25.91,9.29,37.3L128.29,750.62z"/>
			</g>
			<g>
				<path class="st0" d="M170.27,788.61c-15.02-6.17-27.84-16.52-37.08-29.94l3.29-2.27c8.8,12.78,21.01,22.63,35.3,28.5
					L170.27,788.61z"/>
			</g>
			<g>
				<path class="st0" d="M201.92,794.82c-8.24,0-16.38-1.2-24.19-3.56l1.16-3.83c7.43,2.25,15.18,3.39,23.03,3.39
					c8.32,0,16.51-1.28,24.36-3.8l1.23,3.81C219.27,793.48,210.66,794.82,201.92,794.82z"/>
			</g>
			<g>
				<path class="st0" d="M235.21,787.92l-1.6-3.67c13.75-5.99,25.5-15.74,33.98-28.18l3.31,2.25
					C261.99,771.39,249.65,781.62,235.21,787.92z"/>
			</g>
			<g>
				<path class="st0" d="M275.83,750.1l-3.54-1.86c5.91-11.27,9.03-24,9.03-36.81h4C285.32,724.89,282.03,738.26,275.83,750.1z"/>
			</g>
			<g>
				<path class="st0" d="M280.36,699.05c-2.33-14.89-8.86-28.76-18.88-40.12l3-2.65c10.52,11.93,17.38,26.5,19.83,42.15
					L280.36,699.05z"/>
			</g>
			<g>
				<path class="st0" d="M255.09,652.47c-9.89-8.93-21.94-15.25-34.83-18.3l0.92-3.89c13.55,3.2,26.2,9.85,36.59,19.22
					L255.09,652.47z"/>
			</g>
			<g>
				<g>
					<polygon class="st0" points="169.5,606.16 184.34,606.16 184.34,620.99 					"/>
				</g>
				<g>
					<polygon class="st0" points="235.56,606.16 220.72,606.16 220.72,620.99 					"/>
				</g>
				<g>
					<rect x="182.86" y="605.18" class="st0" width="4" height="123.07"/>
				</g>
				<g>
					<rect x="218.72" y="605.18" class="st0" width="4" height="123.07"/>
				</g>
				<g>
					<path class="st0" d="M197.64,704.22l-6.62-8.01l14.96-4.17l-18.4-6.78l17.96-6.21l-17.82-6.99l19.64-6.72l-18.11-9.22
						l16.51-4.32l-15.17-6.35l16.19-7.01c-12.51-5.42-13.05-5.96-13.33-6.24l-0.81-0.81l0.28-1.16c0.31-1.19,0.48-1.84,15.74-6.19
						l-17.82-8.03l15.91-6.11l-2.32-2.34l2.84-2.82l6.65,6.69l-12.68,4.87l19.11,8.61l-5.32,1.48c-5.56,1.55-11.56,3.32-15.31,4.54
						c3.52,1.6,8.85,3.92,12.91,5.66l4.27,1.83l-16.08,6.96l17.42,7.28l-17.78,4.66l17.17,8.74l-18.27,6.25l17.77,6.97l-17.62,6.09
						l19.51,7.19l-20.96,5.84l2.69,3.26L197.64,704.22z"/>
				</g>
				<g>
					<path class="st0" d="M202.92,722.41c-6.1,0-11.06-4.96-11.06-11.06s4.96-11.06,11.06-11.06s11.06,4.96,11.06,11.06
						S209.02,722.41,202.92,722.41z M202.92,704.29c-3.89,0-7.06,3.17-7.06,7.06s3.17,7.06,7.06,7.06s7.06-3.17,7.06-7.06
						S206.81,704.29,202.92,704.29z"/>
				</g>
			</g>
			<g>
				<path class="st0" d="M318.05,757.49c-3.12,0-6.25-0.31-9.28-0.91l0.78-3.92c2.78,0.55,5.64,0.83,8.5,0.83
					c23.82,0,43.2-19.38,43.2-43.2c0-23.82-19.38-43.2-43.2-43.2c-3.15,0-6.28,0.34-9.33,1.01l-0.86-3.91
					c3.32-0.73,6.75-1.1,10.19-1.1c26.03,0,47.2,21.17,47.2,47.2S344.07,757.49,318.05,757.49z"/>
			</g>
			<g>
				<path class="st0" d="M319.26,777.11c-6.72,0-13.34-1-19.7-2.98l1.19-3.82c5.97,1.86,12.2,2.8,18.51,2.8
					c34.32,0,62.24-27.92,62.24-62.24c0-34.32-27.92-62.24-62.24-62.24c-6.47,0-12.86,0.99-18.96,2.94l-1.22-3.81
					c6.5-2.08,13.29-3.13,20.18-3.13c36.52,0,66.24,29.71,66.24,66.24S355.78,777.11,319.26,777.11z"/>
			</g>
			<g>
				<rect x="360.44" y="692.58" class="st0" width="72.96" height="4"/>
			</g>
			<g>
				<rect x="361.29" y="721.47" class="st0" width="71.5" height="4"/>
			</g>
			<g>
				<path class="st0" d="M432.65,725.46c-9.06,0-16.44-7.38-16.44-16.44s7.38-16.44,16.44-16.44s16.44,7.38,16.44,16.44
					S441.71,725.46,432.65,725.46z M432.65,696.58c-6.86,0-12.44,5.58-12.44,12.44s5.58,12.44,12.44,12.44s12.44-5.58,12.44-12.44
					S439.51,696.58,432.65,696.58z"/>
			</g>
			<g>
				<rect x="430.65" y="629.13" class="st0" width="4" height="65.46"/>
			</g>
			<g>
				<polygon class="st0" points="367.25,668.21 364.58,665.23 434.65,602.63 434.65,615.49 430.65,615.49 430.65,611.56 				"/>
			</g>
			<g>
				<path class="st0" d="M433.21,630.79c-4.63,0-8.4-3.77-8.4-8.4s3.77-8.4,8.4-8.4s8.4,3.77,8.4,8.4S437.84,630.79,433.21,630.79z
					 M433.21,617.99c-2.43,0-4.4,1.97-4.4,4.4s1.97,4.4,4.4,4.4s4.4-1.97,4.4-4.4S435.63,617.99,433.21,617.99z"/>
			</g>
			<g>
				<path class="st0" d="M444.1,678.51h-21.79v-32.93h21.79V678.51z M426.31,674.51h13.79v-24.93h-13.79V674.51z"/>
			</g>
			<g>
				<path class="st0" d="M287.15,699.47l-3.72-1.46c5.76-14.73,19.71-24.24,35.53-24.24c0.57,0,1.13,0.01,1.69,0.04l-0.18,4
					c-0.5-0.02-1.01-0.03-1.52-0.03C304.79,677.77,292.31,686.28,287.15,699.47z"/>
			</g>
			<g>
				<path class="st0" d="M305.82,747.72c-14.96-5.48-25.01-19.88-25.01-35.82c0-1.79,0.12-3.59,0.37-5.35l3.96,0.55
					c-0.22,1.58-0.33,3.2-0.33,4.8c0,14.27,9,27.15,22.39,32.06L305.82,747.72z"/>
			</g>
			<g>
				<path class="st0" d="M318.95,750.04v-4c15.92,0,29.94-11.27,33.34-26.79l3.91,0.86C352.4,737.45,336.73,750.04,318.95,750.04z"
					/>
			</g>
			<g>
				<path class="st0" d="M357.09,711.9h-4c0-15.98-10.86-29.66-26.41-33.26l0.9-3.9C344.95,678.77,357.09,694.04,357.09,711.9z"/>
			</g>
		</g>
		<g>
			<g>
				<path class="st0" d="M796.38,829.65c-65.19,0-118.22-53.04-118.22-118.22s53.04-118.22,118.22-118.22
					s118.22,53.03,118.22,118.22S861.57,829.65,796.38,829.65z M796.38,597.21c-62.98,0-114.22,51.24-114.22,114.22
					c0,62.98,51.24,114.22,114.22,114.22c62.98,0,114.22-51.24,114.22-114.22C910.61,648.45,859.37,597.21,796.38,597.21z"/>
			</g>
			<g>
				<path class="st0" d="M848.01,651.72c-10.17-8.93-22.51-15.13-35.68-17.94l0.83-3.91c13.84,2.95,26.8,9.47,37.49,18.84
					L848.01,651.72z"/>
			</g>
			<g>
				<path class="st0" d="M873.88,697.66c-2.53-14.45-9.04-27.92-18.83-38.94l2.99-2.66c10.29,11.58,17.13,25.72,19.78,40.91
					L873.88,697.66z"/>
			</g>
			<g>
				<path class="st0" d="M869.31,750.62l-3.53-1.88c6.08-11.4,9.29-24.3,9.29-37.3c0-1.49-0.04-3-0.12-4.48l3.99-0.22
					c0.09,1.56,0.13,3.14,0.13,4.7C879.07,725.09,875.7,738.64,869.31,750.62z"/>
			</g>
			<g>
				<path class="st0" d="M827.33,788.61l-1.52-3.7c14.3-5.87,26.51-15.73,35.3-28.5l3.29,2.27
					C855.17,772.09,842.35,782.44,827.33,788.61z"/>
			</g>
			<g>
				<path class="st0" d="M795.68,794.82c-8.74,0-17.34-1.34-25.58-4l1.23-3.81c7.84,2.52,16.04,3.8,24.36,3.8
					c7.85,0,15.6-1.14,23.03-3.39l1.16,3.83C812.06,793.62,803.92,794.82,795.68,794.82z"/>
			</g>
			<g>
				<path class="st0" d="M762.4,787.92c-14.45-6.29-26.79-16.53-35.69-29.59l3.31-2.25c8.47,12.44,20.22,22.19,33.98,28.18
					L762.4,787.92z"/>
			</g>
			<g>
				<path class="st0" d="M721.78,750.1c-6.21-11.84-9.49-25.21-9.49-38.67h4c0,12.81,3.12,25.54,9.03,36.81L721.78,750.1z"/>
			</g>
			<g>
				<path class="st0" d="M717.25,699.05l-3.95-0.62c2.45-15.65,9.31-30.22,19.83-42.15l3,2.65
					C726.11,670.28,719.58,684.16,717.25,699.05z"/>
			</g>
			<g>
				<path class="st0" d="M742.52,652.47l-2.68-2.97c10.39-9.37,23.04-16.02,36.59-19.22l0.92,3.89
					C764.45,637.21,752.41,643.54,742.52,652.47z"/>
			</g>
			<g>
				<g>
					<polygon class="st0" points="828.1,606.16 813.26,606.16 813.26,620.99 					"/>
				</g>
				<g>
					<polygon class="st0" points="762.05,606.16 776.89,606.16 776.89,620.99 					"/>
				</g>
				<g>
					<rect x="810.75" y="605.18" class="st0" width="4" height="123.07"/>
				</g>
				<g>
					<rect x="774.89" y="605.18" class="st0" width="4" height="123.07"/>
				</g>
				<g>
					<path class="st0" d="M799.97,704.22l-3.08-2.55l2.69-3.26l-20.96-5.84l19.51-7.19l-17.62-6.09l17.76-6.97L780,666.07
						l17.17-8.74l-17.78-4.66l17.41-7.28l-16.08-6.96l4.27-1.83c4.06-1.74,9.38-4.06,12.9-5.66c-3.75-1.22-9.75-2.99-15.31-4.54
						l-5.32-1.48l19.11-8.61l-12.69-4.87l6.65-6.69l2.84,2.82l-2.32,2.34l15.91,6.11l-17.82,8.03c15.25,4.35,15.42,5.01,15.73,6.19
						l0.29,1.11l-0.83,0.86c-0.28,0.28-0.82,0.82-13.33,6.24l16.19,7.01l-15.17,6.35l16.51,4.32l-18.11,9.22l19.64,6.72l-17.82,6.99
						l17.96,6.21l-18.4,6.78l14.96,4.17L799.97,704.22z"/>
				</g>
				<g>
					<path class="st0" d="M794.68,722.41c-6.1,0-11.06-4.96-11.06-11.06s4.96-11.06,11.06-11.06s11.06,4.96,11.06,11.06
						S800.78,722.41,794.68,722.41z M794.68,704.29c-3.89,0-7.06,3.17-7.06,7.06s3.17,7.06,7.06,7.06s7.06-3.17,7.06-7.06
						S798.58,704.29,794.68,704.29z"/>
				</g>
			</g>
			<g>
				<path class="st0" d="M679.56,757.49c-26.03,0-47.2-21.17-47.2-47.2s21.17-47.2,47.2-47.2c3.44,0,6.86,0.37,10.19,1.1l-0.86,3.91
					c-3.04-0.67-6.18-1.01-9.33-1.01c-23.82,0-43.2,19.38-43.2,43.2c0,23.82,19.38,43.2,43.2,43.2c2.86,0,5.72-0.28,8.5-0.83
					l0.78,3.92C685.8,757.19,682.68,757.49,679.56,757.49z"/>
			</g>
			<g>
				<path class="st0" d="M678.34,777.11c-36.52,0-66.24-29.71-66.24-66.24s29.71-66.24,66.24-66.24c6.89,0,13.68,1.05,20.18,3.13
					l-1.22,3.81c-6.11-1.95-12.49-2.94-18.96-2.94c-34.32,0-62.24,27.92-62.24,62.24c0,34.32,27.92,62.24,62.24,62.24
					c6.31,0,12.54-0.94,18.51-2.8l1.19,3.82C691.69,776.11,685.06,777.11,678.34,777.11z"/>
			</g>
			<g>
				<rect x="564.2" y="692.58" class="st0" width="72.96" height="4"/>
			</g>
			<g>
				<rect x="564.81" y="721.47" class="st0" width="71.5" height="4"/>
			</g>
			<g>
				<path class="st0" d="M564.95,725.46c-9.06,0-16.44-7.38-16.44-16.44s7.38-16.44,16.44-16.44s16.44,7.38,16.44,16.44
					S574.02,725.46,564.95,725.46z M564.95,696.58c-6.86,0-12.44,5.58-12.44,12.44s5.58,12.44,12.44,12.44s12.44-5.58,12.44-12.44
					S571.81,696.58,564.95,696.58z"/>
			</g>
			<g>
				<rect x="562.95" y="629.13" class="st0" width="4" height="65.46"/>
			</g>
			<g>
				<polygon class="st0" points="630.36,668.21 566.95,611.56 566.95,615.49 562.95,615.49 562.95,602.63 633.02,665.23 				"/>
			</g>
			<g>
				<path class="st0" d="M564.4,630.79c-4.63,0-8.4-3.77-8.4-8.4s3.77-8.4,8.4-8.4s8.4,3.77,8.4,8.4S569.03,630.79,564.4,630.79z
					 M564.4,617.99c-2.43,0-4.4,1.97-4.4,4.4s1.97,4.4,4.4,4.4s4.4-1.97,4.4-4.4S566.82,617.99,564.4,617.99z"/>
			</g>
			<g>
				<path class="st0" d="M575.29,678.51H553.5v-32.93h21.79V678.51z M557.5,674.51h13.79v-24.93H557.5V674.51z"/>
			</g>
			<g>
				<path class="st0" d="M710.46,699.47c-5.16-13.18-17.64-21.7-31.8-21.7c-0.51,0-1.01,0.01-1.52,0.03l-0.18-4
					c0.56-0.02,1.13-0.04,1.69-0.04c15.82,0,29.76,9.52,35.53,24.24L710.46,699.47z"/>
			</g>
			<g>
				<path class="st0" d="M691.78,747.72l-1.38-3.76c13.39-4.91,22.39-17.79,22.39-32.06c0-1.61-0.11-3.22-0.33-4.8l3.96-0.56
					c0.25,1.76,0.37,3.56,0.37,5.35C716.79,727.84,706.74,742.23,691.78,747.72z"/>
			</g>
			<g>
				<path class="st0" d="M678.65,750.04c-17.78,0-33.45-12.59-37.25-29.94l3.91-0.86c3.4,15.52,17.43,26.79,33.34,26.79V750.04z"/>
			</g>
			<g>
				<path class="st0" d="M644.52,711.9h-4c0-17.86,12.13-33.14,29.51-37.16l0.9,3.9C655.38,682.24,644.52,695.92,644.52,711.9z"/>
			</g>
		</g>
	</g>
</g>
</svg>
